<?xml version="1.0" encoding="UTF-8"?>
<svg id="_レイヤー_1" data-name="レイヤー_1" xmlns="http://www.w3.org/2000/svg" version="1.1" viewBox="0 0 222.96 32">
  <!-- Generator: Adobe Illustrator 29.7.1, SVG Export Plug-In . SVG Version: 2.1.1 Build 8)  -->
  <defs>
    <style>
      .st0 {
        fill: #fff;
      }

      .st1 {
        fill: #0d2131;
      }
    </style>
  </defs>
  <g>
    <rect class="st0" y="0" width="32" height="32" rx="4" ry="4"/>
    <g>
      <path class="st1" d="M21.16,15.61c-.19.17-1.35.81-1.54.68-.45-1.07-.89-2.93-2.21-3.15-1.82-.31-6.31,2.23-7.01-.66-.65-2.68,1.86-3.55,4-3.7,2.33-.16,5.44-.19,7.05,1.77,1.23,1.5,1.2,3.74-.29,5.07Z"/>
      <path class="st1" d="M14.91,23.23c1.77,1.98-.72,5.11-3.19,3.91-2.27-1.1-1.36-5.7.31-5.85.17-.02,2.67,1.7,2.88,1.94Z"/>
      <path class="st1" d="M17.48,4.83c.72.69.42,2.48-.81,2.5-1.88-.75-.31-3.57.81-2.5Z"/>
      <path class="st1" d="M14.6,7.29c-1.07.87-2.34-.89-1.4-1.95,1.21-1.36,2.45,1.1,1.4,1.95Z"/>
      <path class="st1" d="M10.53,8.26c-1.1-.93-.1-3.18,1.16-2.04,1.19,1.08-.11,2.92-1.16,2.04Z"/>
      <path class="st1" d="M19.56,4.97c1.59-.47,1.61,2.45.1,2.49-1.31.03-1.21-2.16-.1-2.49Z"/>
      <path class="st1" d="M21.24,8.9c-.88-.89.77-2.94,1.73-1.96.88.89-.72,2.97-1.73,1.96Z"/>
    </g>
  </g>
  <g>
    <path class="st0" d="M44,7.08h7.69c3.3,0,5.78,2.4,5.78,5.63s-2.48,5.61-5.78,5.61h-4.71v6.03h-2.98V7.08ZM46.98,9.89v5.63h4.66c1.58,0,2.78-1.2,2.78-2.8s-1.2-2.83-2.78-2.83h-4.66Z"/>
    <path class="st0" d="M64.39,7.08h4.13l7.96,17.28h-3.84l-1.64-3.68h-9.19l-1.64,3.68h-3.75l7.96-17.28ZM69.78,17.92l-3.37-7.59-3.37,7.59h6.73Z"/>
    <path class="st0" d="M76.48,15.72c0-5.08,3.93-8.94,9.09-8.94,4.33,0,7.79,2.73,8.64,6.56h-3.15c-.78-2.2-2.9-3.68-5.48-3.68-3.41,0-6.01,2.6-6.01,6.06s2.6,6.06,6.01,6.06c2.58,0,4.71-1.48,5.48-3.68h3.15c-.85,3.83-4.31,6.56-8.64,6.56-5.16,0-9.09-3.86-9.09-8.94Z"/>
    <path class="st0" d="M96.59,7.08h11.24v2.8h-8.26v4.38h7.44v2.8h-7.44v4.48h8.39v2.8h-11.37V7.08Z"/>
    <path class="st0" d="M110.62,7.08h8.88c3.76,0,6.64,2.35,6.64,5.48,0,2.58-2,4.58-4.82,5.18l5.44,6.61h-4.38l-5.11-6.43h-3.15v6.43h-3.5V7.08ZM114.12,9.89v5.43h5.29c1.79,0,3.15-1.18,3.15-2.73s-1.35-2.7-3.15-2.7h-5.29Z"/>
  </g>
  <g>
    <path class="st0" d="M134.08,15.72c0-5.08,3.93-8.94,9.09-8.94,4.33,0,7.79,2.73,8.64,6.56h-3.15c-.78-2.2-2.9-3.68-5.48-3.68-3.41,0-6.01,2.6-6.01,6.06s2.6,6.06,6.01,6.06c2.58,0,4.71-1.48,5.48-3.68h3.15c-.85,3.83-4.31,6.56-8.64,6.56-5.16,0-9.09-3.86-9.09-8.94Z"/>
    <path class="st0" d="M153.2,17.97c0-3.81,2.93-6.68,6.84-6.68s6.84,2.88,6.84,6.68-2.95,6.68-6.84,6.68-6.84-2.88-6.84-6.68ZM163.97,17.97c0-2.25-1.68-3.98-3.93-3.98s-3.96,1.73-3.96,3.98,1.7,3.98,3.96,3.98,3.93-1.73,3.93-3.98Z"/>
    <path class="st0" d="M169.03,11.59h2.8v1.63c1.03-1.25,2.5-1.93,4.31-1.93,3.03,0,5.06,2,5.06,5.03v8.04h-2.8v-7.11c0-1.95-1.25-3.25-3.18-3.25-2.03,0-3.38,1.33-3.38,3.3v7.06h-2.8v-12.77Z"/>
    <path class="st0" d="M184.74,20.43v-6.28h-2.15v-2.55h1.3c.65,0,1-.35,1-1v-2.45h2.65v3.46h3.15v2.55h-3.15v5.83c0,1.13.7,1.8,1.88,1.8h1.28v2.58h-1.68c-2.78,0-4.28-1.4-4.28-3.93Z"/>
    <path class="st0" d="M192.84,11.59h2.8v2.13c1-1.45,2.48-2.33,4.28-2.33h.45v2.88h-.45c-2.7,0-4.28,1.53-4.28,3.88v6.21h-2.8v-12.77Z"/>
    <path class="st0" d="M201.02,17.97c0-3.81,2.93-6.68,6.84-6.68s6.84,2.88,6.84,6.68-2.95,6.68-6.84,6.68-6.84-2.88-6.84-6.68ZM211.79,17.97c0-2.25-1.68-3.98-3.93-3.98s-3.96,1.73-3.96,3.98,1.7,3.98,3.96,3.98,3.93-1.73,3.93-3.98Z"/>
    <path class="st0" d="M216.86,6.33h2.8v18.03h-2.8V6.33Z"/>
  </g>
</svg>