<?xml version="1.0" encoding="UTF-8"?>
<svg id="_レイヤー_1" data-name="レイヤー_1" xmlns="http://www.w3.org/2000/svg" version="1.1" viewBox="0 0 1182.45 200">
  <!-- Generator: Adobe Illustrator 29.7.1, SVG Export Plug-In . SVG Version: 2.1.1 Build 8)  -->
  <defs>
    <style>
      .st0 {
        fill: #fff;
      }

      .st1 {
        fill: #8f9094;
      }

      .st2 {
        fill: #0d2131;
      }
    </style>
  </defs>
  <rect class="st2" y="-.13" width="200" height="200" rx="25" ry="25"/>
  <g>
    <path class="st1" d="M132.22,97.45c-1.16,1.04-8.42,5.07-9.6,4.24-2.84-6.68-5.57-18.3-13.83-19.7-11.37-1.92-39.43,13.94-43.82-4.16-4.06-16.73,11.6-22.19,25.02-23.11,14.56-1.01,34.03-1.2,44.05,11.03,7.7,9.4,7.49,23.37-1.82,31.69Z"/>
    <path class="st1" d="M93.22,145.08c11.08,12.38-4.48,31.95-19.96,24.46-14.17-6.86-8.51-35.6,1.93-36.57,1.09-.1,16.69,10.61,18.03,12.1Z"/>
    <path class="st1" d="M109.27,30.04c4.52,4.32,2.63,15.5-5.03,15.62-11.72-4.71-1.93-22.29,5.03-15.62Z"/>
    <path class="st1" d="M91.24,45.46c-6.71,5.43-14.64-5.56-8.73-12.22,7.54-8.5,15.34,6.87,8.73,12.22Z"/>
    <path class="st1" d="M65.82,51.47c-6.88-5.79-.62-19.88,7.25-12.72,7.45,6.78-.68,18.25-7.25,12.72Z"/>
    <path class="st1" d="M122.25,30.94c9.94-2.94,10.06,15.32.6,15.56-8.18.21-7.53-13.51-.6-15.56Z"/>
    <path class="st1" d="M132.77,55.53c-5.53-5.54,4.78-18.38,10.79-12.28,5.48,5.57-4.53,18.55-10.79,12.28Z"/>
  </g>
  <g>
    <path class="st0" d="M244.51,67.7h39.79c17.11,0,29.94,12.44,29.94,29.16s-12.83,29.03-29.94,29.03h-24.37v31.24h-15.42v-89.43ZM259.94,82.22v29.16h24.11c8.17,0,14.39-6.22,14.39-14.52s-6.22-14.65-14.39-14.65h-24.11Z"/>
    <path class="st0" d="M350.07,67.7h21.37l41.22,89.43h-19.85l-8.49-19.05h-47.59l-8.49,19.05h-19.4l41.22-89.43ZM377.96,123.82l-17.43-39.27-17.43,39.27h34.86Z"/>
    <path class="st0" d="M412.67,112.42c0-26.31,20.35-46.27,47.05-46.27,22.42,0,40.31,14.13,44.71,33.96h-16.33c-4.02-11.41-15.03-19.05-28.38-19.05-17.63,0-31.11,13.48-31.11,31.37s13.48,31.37,31.11,31.37c13.35,0,24.37-7.65,28.38-19.05h16.33c-4.41,19.83-22.29,33.96-44.71,33.96-26.7,0-47.05-19.96-47.05-46.27Z"/>
    <path class="st0" d="M516.74,67.7h58.19v14.52h-42.77v22.68h38.49v14.52h-38.49v23.2h43.42v14.52h-58.84v-89.43Z"/>
    <path class="st0" d="M589.38,67.7h45.95c19.48,0,34.39,12.18,34.39,28.38,0,13.35-10.35,23.72-24.95,26.83l28.15,34.22h-22.67l-26.48-33.31h-16.28v33.31h-18.11v-89.43ZM607.49,82.22v28.13h27.39c9.28,0,16.28-6.09,16.28-14.13s-7-14-16.28-14h-27.39Z"/>
  </g>
  <g>
    <path class="st0" d="M710.83,112.42c0-26.31,20.35-46.27,47.05-46.27,22.42,0,40.31,14.13,44.71,33.96h-16.33c-4.02-11.41-15.04-19.05-28.38-19.05-17.63,0-31.11,13.48-31.11,31.37s13.48,31.37,31.11,31.37c13.35,0,24.37-7.65,28.38-19.05h16.33c-4.41,19.83-22.29,33.96-44.71,33.96-26.7,0-47.05-19.96-47.05-46.27Z"/>
    <path class="st0" d="M809.82,124.08c0-19.7,15.16-34.61,35.38-34.61s35.38,14.91,35.38,34.61-15.29,34.61-35.38,34.61-35.38-14.91-35.38-34.61ZM865.55,124.08c0-11.67-8.68-20.61-20.35-20.61s-20.48,8.94-20.48,20.61,8.81,20.61,20.48,20.61,20.35-8.94,20.35-20.61Z"/>
    <path class="st0" d="M891.74,91.03h14.52v8.42c5.31-6.48,12.96-9.98,22.29-9.98,15.68,0,26.18,10.37,26.18,26.05v41.6h-14.52v-36.81c0-10.11-6.48-16.85-16.46-16.85-10.5,0-17.5,6.87-17.5,17.11v36.55h-14.52v-66.1Z"/>
    <path class="st0" d="M973.07,136.78v-32.53h-11.15v-13.22h6.74c3.37,0,5.18-1.81,5.18-5.18v-12.7h13.74v17.89h16.33v13.22h-16.33v30.2c0,5.83,3.63,9.33,9.72,9.33h6.61v13.35h-8.68c-14.39,0-22.16-7.26-22.16-20.35Z"/>
    <path class="st0" d="M1015,91.03h14.52v11.02c5.18-7.52,12.83-12.05,22.16-12.05h2.33v14.91h-2.33c-14,0-22.16,7.91-22.16,20.09v32.14h-14.52v-66.1Z"/>
    <path class="st0" d="M1057.36,124.08c0-19.7,15.16-34.61,35.38-34.61s35.38,14.91,35.38,34.61-15.29,34.61-35.38,34.61-35.38-14.91-35.38-34.61ZM1113.09,124.08c0-11.67-8.68-20.61-20.35-20.61s-20.48,8.94-20.48,20.61,8.81,20.61,20.48,20.61,20.35-8.94,20.35-20.61Z"/>
    <path class="st0" d="M1139.34,63.81h14.52v93.32h-14.52V63.81Z"/>
  </g>
</svg>